<svg xmlns="http://www.w3.org/2000/svg" xmlns:xlink="http://www.w3.org/1999/xlink" fill="none" version="1.1" width="24" height="24" viewBox="0 0 24 24"><defs><mask id="master_svg0_0_169859"><g><path d="M11.25,12.75L11.25,21.25Q11.25,21.3239,11.26441,21.3963Q11.27882,21.4688,11.30709,21.537Q11.33536,21.6053,11.3764,21.6667Q11.41744,21.7281,11.46967,21.7803Q11.5219,21.8326,11.58332,21.8736Q11.64474,21.9146,11.71299,21.9429Q11.78123,21.9712,11.85368,21.9856Q11.92613,22,12,22Q12.0739,22,12.1463,21.9856Q12.2188,21.9712,12.287,21.9429Q12.3553,21.9146,12.4167,21.8736Q12.4781,21.8326,12.5303,21.7803Q12.5826,21.7281,12.6236,21.6667Q12.6646,21.6053,12.6929,21.537Q12.7212,21.4688,12.7356,21.3963Q12.75,21.3239,12.75,21.25L12.75,2.75Q12.75,2.676131,12.7356,2.603682Q12.7212,2.531233,12.6929,2.462987Q12.6646,2.394742,12.6236,2.333322Q12.5826,2.271903,12.5303,2.21967Q12.4781,2.167437,12.4167,2.126398Q12.3553,2.0853586,12.287,2.0570903Q12.2188,2.0288221,12.1463,2.014411Q12.0739,2,12,2Q11.92613,2,11.85368,2.014411Q11.78123,2.0288221,11.71299,2.0570903Q11.64474,2.0853586,11.58332,2.126398Q11.5219,2.167437,11.46967,2.21967Q11.41744,2.271903,11.3764,2.333322Q11.33536,2.394742,11.30709,2.462987Q11.27882,2.531233,11.26441,2.603682Q11.25,2.676131,11.25,2.75L11.25,11.25L2.75,11.25Q2.676131,11.25,2.603682,11.26441Q2.531233,11.27882,2.462987,11.30709Q2.394742,11.33536,2.333322,11.3764Q2.271903,11.41744,2.21967,11.46967Q2.167437,11.5219,2.126398,11.58332Q2.0853586,11.64474,2.0570903,11.71299Q2.0288221,11.78123,2.014411,11.85368Q2,11.92613,2,12Q2,12.0739,2.014411,12.1463Q2.0288221,12.2188,2.0570903,12.287Q2.0853586,12.3553,2.126398,12.4167Q2.167437,12.4781,2.21967,12.5303Q2.271903,12.5826,2.333322,12.6236Q2.394742,12.6646,2.462987,12.6929Q2.531233,12.7212,2.603682,12.7356Q2.676131,12.75,2.75,12.75L11.25,12.75ZM21.25,12.75L13.75,12.75L13.75,11.25L21.25,11.25Q21.3239,11.25,21.3963,11.26441Q21.4688,11.27882,21.537,11.30709Q21.6053,11.33536,21.6667,11.3764Q21.7281,11.41744,21.7803,11.46967Q21.8326,11.5219,21.8736,11.58332Q21.9146,11.64474,21.9429,11.71299Q21.9712,11.78123,21.9856,11.85368Q22,11.92613,22,12Q22,12.0739,21.9856,12.1463Q21.9712,12.2188,21.9429,12.287Q21.9146,12.3553,21.8736,12.4167Q21.8326,12.4781,21.7803,12.5303Q21.7281,12.5826,21.6667,12.6236Q21.6053,12.6646,21.537,12.6929Q21.4688,12.7212,21.3963,12.7356Q21.3239,12.75,21.25,12.75Z" fill-rule="evenodd" fill="#FFFFFF" fill-opacity="1"/></g></mask></defs><g><g></g><g mask="url(#master_svg0_0_169859)"><g><g><rect x="0" y="0" width="24" height="24" rx="0" fill="#000000" fill-opacity="0.8999999761581421"/></g></g></g></g></svg>