<svg xmlns="http://www.w3.org/2000/svg" xmlns:xlink="http://www.w3.org/1999/xlink" fill="none" version="1.1" width="18" height="18" viewBox="0 0 18 18"><g><g><path d="M9,0C13.9706,0,18,4.02944,18,9C18,13.9706,13.9706,18,9,18C4.02944,18,0,13.9706,0,9C0,4.02944,4.02944,0,9,0ZM9,1.22727C4.70724,1.22727,1.22727,4.70724,1.22727,9C1.22727,13.2928,4.70724,16.7727,9,16.7727C13.2928,16.7727,16.7727,13.2928,16.7727,9C16.7727,4.70724,13.2928,1.22727,9,1.22727ZM9.61364,13.2955C9.61364,13.6344,9.3389,13.9091,9,13.9091C8.6611,13.9091,8.38636,13.6344,8.38636,13.2955L8.38636,9.61282L4.70455,9.61364C4.36564,9.61364,4.09091,9.3389,4.09091,9C4.09091,8.6611,4.36564,8.38636,4.70455,8.38636L8.38636,8.38554L8.38636,4.70455C8.38636,4.36564,8.6611,4.09091,9,4.09091C9.3389,4.09091,9.61364,4.36564,9.61364,4.70455L9.61364,13.2955ZM13.2955,8.38636C13.6344,8.38636,13.9091,8.6611,13.9091,9C13.9091,9.3389,13.6344,9.61364,13.2955,9.61364L10.4318,9.61364L10.4318,8.38636L13.2955,8.38636Z" fill="#000000" fill-opacity="1"/></g></g></svg>