<svg xmlns="http://www.w3.org/2000/svg" xmlns:xlink="http://www.w3.org/1999/xlink" fill="none" version="1.1" width="18" height="18" viewBox="0 0 18 18"><g><g><g><path d="M4.2562,5.75926L5.08947,13.8881C5.17514,14.7237,5.88388,15.3639,6.73936,15.3882L6.78984,15.3889L11.39941,15.3889C12.2606,15.3889,12.9844,14.7645,13.0941,13.9365L13.0998,13.8876L13.798,7.05758L13.9321,5.75926L15.0775,5.75926L14.9316,7.16861L14.2335,13.9978C14.0903,15.3979,12.8977,16.469,11.46199,16.499299999999998L11.39941,16.5L6.78984,16.5C5.34753,16.5,4.1365300000000005,15.4493,3.96278,14.0593L3.95588,13.9986L3.11089,5.75926L4.2562,5.75926ZM7.76582,8.907409999999999C8.08042,8.907409999999999,8.33544,9.15614,8.33544,9.462959999999999L8.33544,13.9074C8.33544,14.2142,8.08042,14.463,7.76582,14.463C7.45123,14.463,7.1962,14.2142,7.1962,13.9074L7.1962,9.462959999999999C7.1962,9.15614,7.45123,8.907409999999999,7.76582,8.907409999999999ZM10.42405,8.907409999999999C10.73864,8.907409999999999,10.99367,9.15614,10.99367,9.462959999999999L10.99367,13.9074C10.99367,14.2142,10.73864,14.463,10.42405,14.463C10.10946,14.463,9.85443,14.2142,9.85443,13.9074L9.85443,9.462959999999999C9.85443,9.15614,10.10946,8.907409999999999,10.42405,8.907409999999999ZM9.09493,1.5C10.43869,1.5,11.5317,2.54726,11.5626,3.85058L11.5633,3.90741L15.9304,3.90741C16.244999999999997,3.90741,16.5,4.156140000000001,16.5,4.46296C16.5,4.75883,16.262900000000002,5.00068,15.9638,5.017580000000001L15.9304,5.0185200000000005L10.99367,5.0185200000000005C10.69032,5.0185200000000005,10.44234,4.787240000000001,10.42502,4.49561L10.42405,4.46296L10.42405,3.90741C10.42405,3.1914800000000003,9.82899,2.61111,9.09493,2.61111C8.37618,2.61111,7.79068,3.1675500000000003,7.76659,3.86284L7.76582,3.90741L7.76582,4.46296C7.76582,4.75883,7.52868,5.00068,7.22967,5.017580000000001L7.1962,5.0185200000000005L2.06962,5.0185200000000005C1.755028,5.0185200000000005,1.5,4.76979,1.5,4.46296C1.5,4.1671,1.737137,3.92525,2.0361510000000003,3.90835L2.06962,3.90741L6.62658,3.90741C6.62658,2.57783,7.7317,1.5,9.09493,1.5Z" fill="#000000" fill-opacity="1"/></g></g></g></svg>