<svg xmlns="http://www.w3.org/2000/svg" xmlns:xlink="http://www.w3.org/1999/xlink" fill="none" version="1.1" width="136" height="136" viewBox="0 0 136 136"><defs><clipPath id="master_svg0_179_01332"><rect x="0" y="0" width="136" height="136" rx="0"/></clipPath></defs><g clip-path="url(#master_svg0_179_01332)"><g><path d="M67.99677812499999,110.50044023437499C94.598378125,110.50044023437499,116.163378125,90.500240234375,116.163378125,62.333740234375L19.830078125,62.333740234375C19.830078125,90.500240234375,41.395178125,110.50044023437499,67.99677812499999,110.50044023437499Z" fill="#FFFFFF" fill-opacity="1"/><path d="M19.830078125,61.333740234375Q19.731586725,61.333740234375,19.634988125,61.352955234375Q19.538389125,61.372170234375,19.447395125,61.409861234375Q19.356400125,61.447552234375,19.274508125,61.502270234375Q19.192615125,61.556989234375,19.122971125,61.626633234375Q19.053327125,61.696277234375,18.998608125,61.778170234375Q18.943890125,61.860062234375,18.906199125,61.951057234375Q18.868508124999998,62.042051234375,18.849293125,62.138650234375Q18.830078125,62.235248834375,18.830078125,62.333740234375Q18.830078125,72.879840234375,22.692518125,82.127940234375Q26.403068125,91.012240234375,33.238778124999996,97.694540234375Q39.988578125000004,104.29294023437501,48.875378125,107.863240234375Q57.928778125,111.50044023437499,67.99677812499999,111.50044023437499Q78.064678125,111.50044023437499,87.118178125,107.86314023437501Q96.004878125,104.29294023437501,102.754678125,97.694540234375Q109.590378125,91.012340234375,113.300978125,82.127840234375Q117.163378125,72.879940234375,117.163378125,62.333732604985Q117.163378125,62.235241934375,117.144178125,62.138644234375Q117.124978125,62.042045234375,117.087278125,61.951052234375Q117.049578125,61.860058234375,116.994878125,61.778166234375Q116.940178125,61.696274234375,116.870578125,61.626631234375Q116.800878125,61.556988234375,116.718978125,61.502269234375Q116.637078125,61.447551234375,116.546078125,61.409860234375Q116.455078125,61.372169234375,116.358478125,61.352955234375Q116.261878125,61.333740234375,116.163378125,61.333740234375L19.830078125,61.333740234375ZM20.839138125,63.333740234375Q21.013388125,72.917940234375,24.538028125,81.357140234375Q28.091888125,89.866340234375,34.636878125,96.264440234375Q41.102678125,102.58514023437499,49.620978125,106.007340234375Q58.315478125,109.50044023437499,67.99677812499999,109.50044023437499Q77.67797812500001,109.50044023437499,86.372578125,106.007340234375Q94.890778125,102.58514023437499,101.356678125,96.264440234375Q107.901578125,89.866340234375,111.455478125,81.357140234375Q114.980078125,72.917940234375,115.154378125,63.333740234375L20.839138125,63.333740234375Z" fill-rule="evenodd" fill="#FFFFFF" fill-opacity="1"/></g><g><path d="M95.40687812499999,123.08515976562501L89.74127812500001,106.088329765625L89.740178125,106.085119765625Q89.678378125,105.899879765625,89.602378125,105.720019765625Q89.52637812500001,105.540159765625,89.436578125,105.366769765625Q89.346778125,105.193379765625,89.243778125,105.027529765625Q89.140678125,104.861669765625,89.025078125,104.704349765625Q88.909378125,104.547039765625,88.781778125,104.399229765625Q88.654178125,104.251409765625,88.515478125,104.113999765625Q88.376778125,103.976579765625,88.227778125,103.850399765625Q88.07867812500001,103.724229765625,87.92027812500001,103.610049765625Q87.76187812500001,103.495879765625,87.595078125,103.394409765625Q87.42827812499999,103.292939765625,87.254078125,103.204789765625Q87.07977812499999,103.116639765625,86.89917812499999,103.042339765625Q86.718678125,102.968039765625,86.532778125,102.908059765625Q86.34697812499999,102.848069765625,86.157078125,102.802759765625Q85.967178125,102.757439765625,85.774278125,102.727079765625Q85.581378125,102.696719765625,85.386678125,102.681489765625Q85.192078125,102.666259765625,84.99677812499999,102.666259765625Q84.950078125,102.666259765625,84.90347812499999,102.667129765625Q84.139978125,102.681379765625,83.415578125,102.922839765625Q83.18257812499999,103.000519765625,82.95827812499999,103.100659765625Q82.733978125,103.200809765625,82.520578125,103.322449765625Q82.30717812500001,103.444099765625,82.106778125,103.586069765625Q81.906278125,103.728049765625,81.72077812500001,103.888989765625Q81.535178125,104.049929765625,81.36627812500001,104.228279765625Q81.197378125,104.406639765625,81.046778125,104.600689765625Q80.896178125,104.794729765625,80.765378125,105.002609765625Q80.634478125,105.210489765625,80.524578125,105.430189765625Q80.264278125,105.950899765625,80.130478125,106.517489765625Q79.99677812499999,107.084089765625,79.99677812499999,107.666259765625L79.99677812499999,107.684302765625Q79.999678125,108.486428765625,80.253378125,109.247399765625L80.254378125,109.250599765625L83.726278125,119.666259765625L52.267208124999996,119.666259765625L55.739478125,109.249599765625L55.740178125,109.247399765625Q55.996778125,108.477649765625,55.996778125,107.666262548935Q55.996778125,107.613181265625,55.995578125,107.560114765625Q55.983878125000004,107.004952765625,55.850478125,106.465899765625Q55.717178125000004,105.926859765625,55.468878125,105.430189765625Q55.359078124999996,105.210489765625,55.228178125,105.002609765625Q55.097318125,104.794739765625,54.946718125000004,104.600689765625Q54.796118125,104.406639765625,54.627218125,104.228279765625Q54.458318125,104.049929765625,54.272758124999996,103.888989765625Q54.087188125,103.728049765625,53.886748125,103.586069765625Q53.686298125,103.444099765625,53.472898125,103.322449765625Q53.259498125,103.200809765625,53.035208125,103.100659765625Q52.810918125,103.000519765625,52.577888125,102.922839765625Q51.808138125,102.666259765625,50.996748124999996,102.666259765625Q50.858688125,102.666259765625,50.720848125,102.673879765625Q50.534508125,102.684179765625,50.349448125,102.708339765625Q50.164398125,102.732499765625,49.981658125,102.770379765625Q49.798928125,102.808269765625,49.619518125,102.859679765625Q49.440118125,102.911079765625,49.265038125,102.975719765625Q49.089968125,103.040349765625,48.920198125,103.117859765625Q48.750428125,103.195369765625,48.586918125,103.285309765625Q48.423398125,103.375259765625,48.267038125,103.477139765625Q48.110678125,103.579029765625,47.962358125,103.692289765625Q47.814028125,103.805539765625,47.674558125,103.929539765625Q47.535078125,104.053539765625,47.405238125,104.187599765625Q47.275398125,104.321649765625,47.155918125,104.465009765625Q47.036428125,104.608359765625,46.927968125,104.760229765625Q46.819498125,104.912099765625,46.722648125,105.071629765625Q46.625808125,105.231159765625,46.541128125,105.397459765625Q46.456448125,105.563759765625,46.384398125,105.735919765625Q46.312345125,105.908069765625,46.253330125,106.085119765625L46.253040125,106.085989765625L40.586658125,123.08515976562501Q40.330078125,123.85485976562501,40.330078125,124.666259765625Q40.330078125,124.788959765625,40.336098125,124.911559765625Q40.342128125,125.03415976562499,40.354158125,125.156359765625Q40.366188125,125.278459765625,40.384198125,125.399959765625Q40.402208125,125.521359765625,40.426148125,125.641759765625Q40.450098125,125.762059765625,40.479918125,125.881159765625Q40.509748125,126.000259765625,40.545378125,126.117659765625Q40.581008125,126.235159765625,40.622358125,126.350659765625Q40.663708125,126.466259765625,40.710678125,126.579659765625Q40.757648125,126.69305976562501,40.810128125,126.804059765625Q40.862608125,126.914959765625,40.920468125,127.023259765625Q40.978328125,127.131459765625,41.041438125,127.236759765625Q41.104538125,127.342059765625,41.172728125,127.444059765625Q41.240918125,127.54615976562499,41.314038124999996,127.644759765625Q41.387158125,127.743359765625,41.465028125,127.838259765625Q41.542898125,127.933059765625,41.625318125,128.024059765625Q41.707748125,128.114959765625,41.794548125,128.201759765625Q41.881338125,128.288559765625,41.972288125,128.371059765625Q42.063228125,128.45345976562498,42.158108125,128.531359765625Q42.252998125,128.609159765625,42.351578125,128.682259765625Q42.450168125,128.755459765625,42.552228125,128.823559765625Q42.654288125,128.891759765625,42.759568125,128.954859765625Q42.864848125,129.017959765625,42.973098125,129.075859765625Q43.081348125,129.133759765625,43.192298125,129.186159765625Q43.303258125,129.238659765625,43.416658125,129.28565976562498Q43.530058125,129.332659765625,43.645628125,129.373959765625Q43.761198125,129.415359765625,43.878658125,129.450959765625Q43.996108125,129.486559765625,44.115178125,129.516459765625Q44.234238125,129.546259765625,44.354627125,129.570159765625Q44.475011125,129.594159765625,44.596426125,129.612159765625Q44.717840125,129.630159765625,44.839992125,129.642159765625Q44.962144125,129.654259765625,45.084740125,129.660259765625Q45.207335125,129.666259765625,45.330078125,129.666259765625L90.66337812500001,129.666259765625Q91.474778125,129.666259765625,92.244578125,129.409659765625Q92.47757812500001,129.33195976562502,92.70187812500001,129.231859765625Q92.926178125,129.131759765625,93.139578125,129.010059765625Q93.35297812499999,128.888459765625,93.553378125,128.746459765625Q93.753878125,128.604459765625,93.939478125,128.443559765625Q94.124978125,128.282559765625,94.29387812499999,128.104259765625Q94.462778125,127.925859765625,94.613378125,127.731859765625Q94.763978125,127.537759765625,94.89487812499999,127.329859765625Q95.025678125,127.122059765625,95.135578125,126.902359765625Q95.245378125,126.682659765625,95.333178125,126.453259765625Q95.420978125,126.223759765625,95.485878125,125.986859765625Q95.550778125,125.749959765625,95.592078125,125.507859765625Q95.63347812500001,125.265759765625,95.65087812499999,125.020659765625Q95.668278125,124.775659765625,95.661578125,124.530159765625Q95.65487812500001,124.284559765625,95.624178125,124.040859765625Q95.59347812499999,123.797159765625,95.538978125,123.557659765625Q95.48447812500001,123.318159765625,95.40687812499999,123.08515976562501Z" fill-rule="evenodd" fill="#FFFFFF" fill-opacity="1"/></g><g><path d="M29,28.333740234375L29,39.667040234375Q29,39.789840234375,29.00602,39.912440234375Q29.012050000000002,40.035040234375,29.024079999999998,40.157140234375Q29.03611,40.279340234375,29.05412,40.400740234375Q29.07213,40.522140234375,29.09607,40.642540234375Q29.12002,40.762940234375,29.14984,40.881940234375Q29.17967,41.001040234375,29.2153,41.118540234375004Q29.25093,41.235940234375,29.292279999999998,41.351540234375Q29.33363,41.467140234375,29.3806,41.580540234375Q29.42757,41.693940234375,29.48005,41.804840234375Q29.53253,41.915840234375,29.59039,42.024040234375Q29.64825,42.132340234375,29.71136,42.237540234375004Q29.77446,42.342840234375004,29.84265,42.444940234375Q29.91084,42.546940234375,29.98396,42.645540234375Q30.05708,42.744140234374996,30.13495,42.839040234375Q30.21282,42.933940234375,30.29524,43.024840234375Q30.377670000000002,43.115840234375,30.46447,43.202640234375Q30.55126,43.289440234375,30.64221,43.371840234375Q30.733150000000002,43.454240234375,30.82803,43.532140234375Q30.92292,43.610040234375,31.0215,43.683140234375Q31.12009,43.756240234375,31.22215,43.824440234375004Q31.32421,43.892640234375,31.42949,43.955740234375Q31.53477,44.018840234375,31.64302,44.076640234375Q31.751269999999998,44.134540234375,31.86222,44.187040234375004Q31.97318,44.239540234375,32.08658,44.286440234375Q32.19998,44.333440234375004,32.31555,44.374840234375Q32.43112,44.416140234375,32.54858,44.451740234374995Q32.66603,44.487440234375,32.7851,44.517240234374995Q32.90416,44.547040234375004,33.024549,44.571040234375005Q33.144933,44.594940234375,33.266348,44.612940234375Q33.387762,44.630940234375004,33.509914,44.643040234375Q33.632066,44.655040234375,33.754662,44.661040234375Q33.877257,44.667040234375,34,44.667040234375Q34.122743,44.667040234375,34.245338,44.661040234375Q34.367934,44.655040234375,34.490086,44.643040234375Q34.612238,44.630940234375004,34.733652,44.612940234375Q34.855067,44.594940234375,34.975451,44.571040234375005Q35.09584,44.547040234375004,35.2149,44.517240234374995Q35.33397,44.487440234375,35.45142,44.451740234374995Q35.56888,44.416140234375,35.68445,44.374840234375Q35.80002,44.333440234375004,35.91342,44.286440234375Q36.02682,44.239540234375,36.13778,44.187040234375004Q36.24873,44.134540234375,36.35698,44.076640234375Q36.46523,44.018840234375,36.57051,43.955740234375Q36.67579,43.892640234375,36.77785,43.824440234375004Q36.87991,43.756240234375,36.9785,43.683140234375Q37.07708,43.610040234375,37.17197,43.532140234375Q37.26685,43.454240234375,37.35779,43.371840234375Q37.44874,43.289440234375,37.53553,43.202640234375Q37.62233,43.115840234375,37.70476,43.024840234375Q37.78718,42.933940234375,37.86505,42.839040234375Q37.94292,42.744140234374996,38.016040000000004,42.645540234375Q38.08916,42.546940234375,38.15735,42.444940234375Q38.22554,42.342840234375004,38.28864,42.237540234375004Q38.35175,42.132340234375,38.40961,42.024040234375Q38.46747,41.915840234375,38.51995,41.804840234375Q38.57243,41.693940234375,38.6194,41.580540234375Q38.66637,41.467140234375,38.70772,41.351540234375Q38.74907,41.235940234375,38.7847,41.118540234375004Q38.82033,41.001040234375,38.85016,40.881940234375Q38.87998,40.762940234375,38.90393,40.642540234375Q38.92787,40.522140234375,38.94588,40.400740234375Q38.96389,40.279340234375,38.97592,40.157140234375Q38.98795,40.035040234375,38.99398,39.912440234375Q39,39.789840234375,39,39.667040234375L39,28.333740234375Q39,28.210997234375,38.99398,28.088402234375Q38.98795,27.965806234375002,38.97592,27.843654234375Q38.96389,27.721502234375,38.94588,27.600088234375Q38.92787,27.478673234375,38.90393,27.358289234375Q38.87998,27.237900234375,38.85016,27.118840234375Q38.82033,26.999770234375,38.7847,26.882320234375Q38.74907,26.764860234375,38.70772,26.649290234375Q38.66637,26.533720234375,38.6194,26.420320234375Q38.57243,26.306920234375,38.51995,26.195960234375Q38.46747,26.085010234374998,38.40961,25.976760234375Q38.35175,25.868510234375,38.28864,25.763230234375Q38.22554,25.657950234375,38.15735,25.555890234375Q38.08916,25.453830234375,38.016040000000004,25.355240234375Q37.94292,25.256660234375,37.86505,25.161770234375Q37.78718,25.066890234375002,37.70476,24.975950234375Q37.62233,24.885000234375,37.53553,24.798210234375Q37.44874,24.711410234375002,37.35779,24.628980234375Q37.26685,24.546560234375,37.17197,24.468690234375Q37.07708,24.390820234375,36.9785,24.317700234375Q36.87991,24.244580234375,36.77785,24.176390234375Q36.67579,24.108200234375,36.57051,24.045100234375Q36.46523,23.981990234375,36.35698,23.924130234375Q36.24873,23.866270234375,36.13778,23.813790234375Q36.02682,23.761310234375,35.91342,23.714340234375Q35.80002,23.667370234375,35.68445,23.626020234374998Q35.56888,23.584670234375,35.45142,23.549040234375Q35.33397,23.513410234375,35.2149,23.483580234375Q35.09584,23.453760234375,34.975451,23.429810234375Q34.855067,23.405870234375,34.733652,23.387860234375Q34.612238,23.369850234375,34.490086,23.357820234374998Q34.367934,23.345790234375002,34.245338,23.339760234375Q34.122743,23.333740234375,34,23.333740234375Q33.877257,23.333740234375,33.754662,23.339760234375Q33.632066,23.345790234375002,33.509914,23.357820234374998Q33.387762,23.369850234375,33.266348,23.387860234375Q33.144933,23.405870234375,33.024549,23.429810234375Q32.90416,23.453760234375,32.7851,23.483580234375Q32.66603,23.513410234375,32.54858,23.549040234375Q32.43112,23.584670234375,32.31555,23.626020234374998Q32.19998,23.667370234375,32.08658,23.714340234375Q31.97318,23.761310234375,31.86222,23.813790234375Q31.751269999999998,23.866270234375,31.64302,23.924130234375Q31.53477,23.981990234375,31.42949,24.045100234375Q31.32421,24.108200234375,31.22215,24.176390234375Q31.12009,24.244580234375,31.0215,24.317700234375Q30.92292,24.390820234375,30.82803,24.468690234375Q30.733150000000002,24.546560234375,30.64221,24.628980234375Q30.55126,24.711410234375002,30.46447,24.798210234375Q30.377670000000002,24.885000234375,30.29524,24.975950234375Q30.21282,25.066890234375002,30.13495,25.161770234375Q30.05708,25.256660234375,29.98396,25.355240234375Q29.91084,25.453830234375,29.84265,25.555890234375Q29.77446,25.657950234375,29.71136,25.763230234375Q29.64825,25.868510234375,29.59039,25.976760234375Q29.53253,26.085010234374998,29.48005,26.195960234375Q29.42757,26.306920234375,29.3806,26.420320234375Q29.33363,26.533720234375,29.292279999999998,26.649290234375Q29.25093,26.764860234375,29.2153,26.882320234375Q29.17967,26.999770234375,29.14984,27.118840234375Q29.12002,27.237900234375,29.09607,27.358289234375Q29.07213,27.478673234375,29.05412,27.600088234375Q29.03611,27.721502234375,29.024079999999998,27.843654234375Q29.012050000000002,27.965806234375002,29.00602,28.088402234375Q29,28.210997234375,29,28.333740234375Z" fill-rule="evenodd" fill="#FFFFFF" fill-opacity="1"/></g><g><path d="M97,28.333740234375L97,39.667040234375Q97,39.789840234375,97.00602,39.912440234375Q97.01205,40.035040234375,97.02408,40.157140234375Q97.03611,40.279340234375,97.05412,40.400740234375Q97.07213,40.522140234375,97.09607,40.642540234375Q97.12002,40.762940234375,97.14984,40.881940234375Q97.17967,41.001040234375,97.2153,41.118540234375004Q97.25093,41.235940234375,97.29228,41.351540234375Q97.33363,41.467140234375,97.3806,41.580540234375Q97.42757,41.693940234375,97.48005,41.804840234375Q97.53253,41.915840234375,97.59039,42.024040234375Q97.64825,42.132340234375,97.71136,42.237540234375004Q97.77446,42.342840234375004,97.84265,42.444940234375Q97.91084000000001,42.546940234375,97.98396,42.645540234375Q98.05708,42.744140234374996,98.13495,42.839040234375Q98.21282,42.933940234375,98.29524,43.024840234375Q98.37767,43.115840234375,98.46447,43.202640234375Q98.55126,43.289440234375,98.64221,43.371840234375Q98.73315,43.454240234375,98.82803,43.532140234375Q98.92292,43.610040234375,99.0215,43.683140234375Q99.12009,43.756240234375,99.22215,43.824440234375004Q99.32421,43.892640234375,99.42949,43.955740234375Q99.53477,44.018840234375,99.64302,44.076640234375Q99.75127,44.134540234375,99.86222,44.187040234375004Q99.97318,44.239540234375,100.08658,44.286440234375Q100.19998,44.333440234375004,100.31555,44.374840234375Q100.43111999999999,44.416140234375,100.54858,44.451740234374995Q100.66603,44.487440234375,100.7851,44.517240234374995Q100.90416,44.547040234375004,101.024549,44.571040234375005Q101.144933,44.594940234375,101.266348,44.612940234375Q101.387762,44.630940234375004,101.509914,44.643040234375Q101.632066,44.655040234375,101.754662,44.661040234375Q101.877257,44.667040234375,102,44.667040234375Q102.122743,44.667040234375,102.245338,44.661040234375Q102.367934,44.655040234375,102.490086,44.643040234375Q102.612238,44.630940234375004,102.733652,44.612940234375Q102.855067,44.594940234375,102.975451,44.571040234375005Q103.09584,44.547040234375004,103.2149,44.517240234374995Q103.33397,44.487440234375,103.45142,44.451740234374995Q103.56888000000001,44.416140234375,103.68445,44.374840234375Q103.80002,44.333440234375004,103.91342,44.286440234375Q104.02682,44.239540234375,104.13778,44.187040234375004Q104.24873,44.134540234375,104.35698,44.076640234375Q104.46523,44.018840234375,104.57051,43.955740234375Q104.67579,43.892640234375,104.77785,43.824440234375004Q104.87991,43.756240234375,104.9785,43.683140234375Q105.07708,43.610040234375,105.17197,43.532140234375Q105.26685,43.454240234375,105.35779,43.371840234375Q105.44874,43.289440234375,105.53553,43.202640234375Q105.62233,43.115840234375,105.70476,43.024840234375Q105.78718,42.933940234375,105.86505,42.839040234375Q105.94292,42.744140234374996,106.01604,42.645540234375Q106.08915999999999,42.546940234375,106.15735,42.444940234375Q106.22554,42.342840234375004,106.28864,42.237540234375004Q106.35175,42.132340234375,106.40961,42.024040234375Q106.46747,41.915840234375,106.51995,41.804840234375Q106.57243,41.693940234375,106.6194,41.580540234375Q106.66637,41.467140234375,106.70772,41.351540234375Q106.74907,41.235940234375,106.7847,41.118540234375004Q106.82033,41.001040234375,106.85016,40.881940234375Q106.87998,40.762940234375,106.90393,40.642540234375Q106.92787,40.522140234375,106.94588,40.400740234375Q106.96389,40.279340234375,106.97592,40.157140234375Q106.98795,40.035040234375,106.99398,39.912440234375Q107,39.789840234375,107,39.667040234375L107,28.333740234375Q107,28.210997234375,106.99398,28.088402234375Q106.98795,27.965806234375002,106.97592,27.843654234375Q106.96389,27.721502234375,106.94588,27.600088234375Q106.92787,27.478673234375,106.90393,27.358289234375Q106.87998,27.237900234375,106.85016,27.118840234375Q106.82033,26.999770234375,106.7847,26.882320234375Q106.74907,26.764860234375,106.70772,26.649290234375Q106.66637,26.533720234375,106.6194,26.420320234375Q106.57243,26.306920234375,106.51995,26.195960234375Q106.46747,26.085010234374998,106.40961,25.976760234375Q106.35175,25.868510234375,106.28864,25.763230234375Q106.22554,25.657950234375,106.15735,25.555890234375Q106.08915999999999,25.453830234375,106.01604,25.355240234375Q105.94292,25.256660234375,105.86505,25.161770234375Q105.78718,25.066890234375002,105.70476,24.975950234375Q105.62233,24.885000234375,105.53553,24.798210234375Q105.44874,24.711410234375002,105.35779,24.628980234375Q105.26685,24.546560234375,105.17197,24.468690234375Q105.07708,24.390820234375,104.9785,24.317700234375Q104.87991,24.244580234375,104.77785,24.176390234375Q104.67579,24.108200234375,104.57051,24.045100234375Q104.46523,23.981990234375,104.35698,23.924130234375Q104.24873,23.866270234375,104.13778,23.813790234375Q104.02682,23.761310234375,103.91342,23.714340234375Q103.80002,23.667370234375,103.68445,23.626020234374998Q103.56888000000001,23.584670234375,103.45142,23.549040234375Q103.33397,23.513410234375,103.2149,23.483580234375Q103.09584,23.453760234375,102.975451,23.429810234375Q102.855067,23.405870234375,102.733652,23.387860234375Q102.612238,23.369850234375,102.490086,23.357820234374998Q102.367934,23.345790234375002,102.245338,23.339760234375Q102.122743,23.333740234375,102,23.333740234375Q101.877257,23.333740234375,101.754662,23.339760234375Q101.632066,23.345790234375002,101.509914,23.357820234374998Q101.387762,23.369850234375,101.266348,23.387860234375Q101.144933,23.405870234375,101.024549,23.429810234375Q100.90416,23.453760234375,100.7851,23.483580234375Q100.66603,23.513410234375,100.54858,23.549040234375Q100.43111999999999,23.584670234375,100.31555,23.626020234374998Q100.19998,23.667370234375,100.08658,23.714340234375Q99.97318,23.761310234375,99.86222,23.813790234375Q99.75127,23.866270234375,99.64302,23.924130234375Q99.53477,23.981990234375,99.42949,24.045100234375Q99.32421,24.108200234375,99.22215,24.176390234375Q99.12009,24.244580234375,99.0215,24.317700234375Q98.92292,24.390820234375,98.82803,24.468690234375Q98.73315,24.546560234375,98.64221,24.628980234375Q98.55126,24.711410234375002,98.46447,24.798210234375Q98.37767,24.885000234375,98.29524,24.975950234375Q98.21282,25.066890234375002,98.13495,25.161770234375Q98.05708,25.256660234375,97.98396,25.355240234375Q97.91084000000001,25.453830234375,97.84265,25.555890234375Q97.77446,25.657950234375,97.71136,25.763230234375Q97.64825,25.868510234375,97.59039,25.976760234375Q97.53253,26.085010234374998,97.48005,26.195960234375Q97.42757,26.306920234375,97.3806,26.420320234375Q97.33363,26.533720234375,97.29228,26.649290234375Q97.25093,26.764860234375,97.2153,26.882320234375Q97.17967,26.999770234375,97.14984,27.118840234375Q97.12002,27.237900234375,97.09607,27.358289234375Q97.07213,27.478673234375,97.05412,27.600088234375Q97.03611,27.721502234375,97.02408,27.843654234375Q97.01205,27.965806234375002,97.00602,28.088402234375Q97,28.210997234375,97,28.333740234375Z" fill-rule="evenodd" fill="#FFFFFF" fill-opacity="1"/></g><g><path d="M63,14.166259765625L63,39.666259765625Q63,39.788959765624995,63.00602,39.911559765625Q63.01205,40.034159765625,63.02408,40.156359765625Q63.03611,40.278459765625,63.05412,40.399959765625Q63.07213,40.521359765625,63.09607,40.641659765625Q63.12002,40.762059765625,63.14984,40.881159765625Q63.17967,41.000259765625,63.2153,41.117659765625Q63.25093,41.235159765625,63.29228,41.350659765625Q63.33363,41.466259765625,63.3806,41.579659765624996Q63.42757,41.693059765625,63.48005,41.804059765625Q63.53253,41.914959765625,63.59039,42.023259765625Q63.64825,42.131459765624996,63.71136,42.236759765624996Q63.77446,42.342059765624995,63.84265,42.444059765625Q63.91084,42.546159765625,63.983959999999996,42.644759765625Q64.05708,42.743359765625,64.13495,42.838259765625Q64.21282,42.933059765625,64.29524,43.024059765625Q64.37767,43.114959765625,64.46447,43.201759765625Q64.55126,43.288559765624996,64.64221,43.371059765625Q64.73315,43.453459765625,64.82803,43.531259765624995Q64.92292,43.609159765625,65.0215,43.682259765625Q65.12009,43.755459765625005,65.22215,43.823559765625Q65.32421,43.891759765625,65.42949,43.954859765625Q65.53477,44.017959765625,65.64302,44.075859765625Q65.75127,44.133759765625,65.86222,44.186159765625Q65.97318,44.238659765625,66.08658,44.285659765625Q66.19998,44.332659765624996,66.31555,44.373959765625Q66.43111999999999,44.415359765625,66.54858,44.450959765625Q66.66603,44.486559765625,66.7851,44.516459765625Q66.90416,44.546259765624995,67.024549,44.570159765625Q67.144933,44.594159765625,67.266348,44.612159765625Q67.387762,44.630159765624995,67.509914,44.642159765624996Q67.632066,44.654259765625,67.754662,44.660259765625Q67.877257,44.666259765625,68,44.666259765625Q68.122743,44.666259765625,68.245338,44.660259765625Q68.367934,44.654259765625,68.490086,44.642159765624996Q68.612238,44.630159765624995,68.733652,44.612159765625Q68.855067,44.594159765625,68.975451,44.570159765625Q69.09584,44.546259765624995,69.2149,44.516459765625Q69.33397,44.486559765625,69.45142,44.450959765625Q69.56888000000001,44.415359765625,69.68445,44.373959765625Q69.80002,44.332659765624996,69.91342,44.285659765625Q70.02682,44.238659765625,70.13778,44.186159765625Q70.24873,44.133759765625,70.35698,44.075859765625Q70.46523,44.017959765625,70.57051,43.954859765625Q70.67579,43.891759765625,70.77785,43.823559765625Q70.87991,43.755459765625005,70.9785,43.682259765625Q71.07708,43.609159765625,71.17197,43.531259765624995Q71.26685,43.453459765625,71.35779,43.371059765625Q71.44874,43.288559765624996,71.53553,43.201759765625Q71.62233,43.114959765625,71.70476,43.024059765625Q71.78718,42.933059765625,71.86505,42.838259765625Q71.94292,42.743359765625,72.01604,42.644759765625Q72.08915999999999,42.546159765625,72.15735,42.444059765625Q72.22554,42.342059765624995,72.28864,42.236759765624996Q72.35175,42.131459765624996,72.40961,42.023259765625Q72.46747,41.914959765625,72.51995,41.804059765625Q72.57243,41.693059765625,72.6194,41.579659765624996Q72.66637,41.466259765625,72.70772,41.350659765625Q72.74907,41.235159765625,72.7847,41.117659765625Q72.82033,41.000259765625,72.85016,40.881159765625Q72.87998,40.762059765625,72.90393,40.641659765625Q72.92787,40.521359765625,72.94588,40.399859765624996Q72.96389,40.278459765625,72.97592,40.156359765625Q72.98795,40.034159765625,72.99398,39.911559765625Q73,39.788959765624995,73,39.666259765625L73,14.166259765625Q73,14.043516765625,72.99398,13.920921765625Q72.98795,13.798325765625,72.97592,13.676173765625Q72.96389,13.554021765625,72.94588,13.432607765625Q72.92787,13.311192765625,72.90393,13.190808765625Q72.87998,13.070419765625001,72.85016,12.951359765625Q72.82033,12.832289765625,72.7847,12.714839765625Q72.74907,12.597379765625,72.70772,12.481809765625Q72.66637,12.366239765625,72.6194,12.252839765625Q72.57243,12.139439765625,72.51995,12.028479765625Q72.46747,11.917529765625,72.40961,11.809279765625Q72.35175,11.701029765625,72.28864,11.595749765625Q72.22554,11.490469765625,72.15735,11.388409765625Q72.08915999999999,11.286349765625,72.01604,11.187759765625Q71.94292,11.089179765625,71.86505,10.994289765625Q71.78718,10.899409765625,71.70476,10.808469765625Q71.62233,10.717519765625,71.53553,10.630729765625Q71.44874,10.543929765625,71.35779,10.461499765625Q71.26685,10.379079765625,71.17197,10.301209765625Q71.07708,10.223339765625,70.9785,10.150219765625Q70.87991,10.077099765625,70.77785,10.008909765624999Q70.67579,9.940719765625001,70.57051,9.877619765624999Q70.46523,9.814509765625,70.35698,9.756649765625Q70.24873,9.698789765625001,70.13778,9.646309765625Q70.02682,9.593829765625,69.91342,9.546859765625001Q69.80002,9.499889765625,69.68445,9.458539765625Q69.56888000000001,9.417189765625,69.45142,9.381559765625Q69.33397,9.345929765625,69.2149,9.316099765625001Q69.09584,9.286279765625,68.975451,9.262329765625001Q68.855067,9.238389765625,68.733652,9.220379765625001Q68.612238,9.202369765625,68.490086,9.190339765625Q68.367934,9.178309765625,68.245338,9.172279765625Q68.122743,9.166259765625,68,9.166259765625Q67.877257,9.166259765625,67.754662,9.172279765625Q67.632066,9.178309765625,67.509914,9.190339765625Q67.387762,9.202369765625,67.266348,9.220379765625001Q67.144933,9.238389765625,67.024549,9.262329765625001Q66.90416,9.286279765625,66.7851,9.316099765625001Q66.66603,9.345929765625,66.54858,9.381559765625Q66.43111999999999,9.417189765625,66.31555,9.458539765625Q66.19998,9.499889765625,66.08658,9.546859765625001Q65.97318,9.593829765625,65.86222,9.646309765625Q65.75127,9.698789765625001,65.64302,9.756649765625Q65.53477,9.814509765625,65.42949,9.877619765624999Q65.32421,9.940719765625001,65.22215,10.008909765624999Q65.12009,10.077099765625,65.0215,10.150219765625Q64.92292,10.223339765625,64.82803,10.301209765625Q64.73315,10.379079765625,64.64221,10.461499765625Q64.55126,10.543929765625,64.46447,10.630729765625Q64.37767,10.717519765625,64.29524,10.808469765625Q64.21282,10.899409765625,64.13495,10.994289765625Q64.05708,11.089179765625,63.983959999999996,11.187759765625Q63.91084,11.286349765625,63.84265,11.388409765625Q63.77446,11.490469765625,63.71136,11.595749765625Q63.64825,11.701029765625,63.59039,11.809279765625Q63.53253,11.917529765625,63.48005,12.028479765625Q63.42757,12.139439765625,63.3806,12.252839765625Q63.33363,12.366239765625,63.29228,12.481809765625Q63.25093,12.597379765625,63.2153,12.714839765625Q63.17967,12.832289765625,63.14984,12.951359765625Q63.12002,13.070419765625001,63.09607,13.190808765625Q63.07213,13.311192765625,63.05412,13.432607765625Q63.03611,13.554021765625,63.02408,13.676173765625Q63.01205,13.798325765625,63.00602,13.920921765625Q63,14.043516765625,63,14.166259765625Z" fill-rule="evenodd" fill="#FFFFFF" fill-opacity="1"/></g></g></svg>