<svg xmlns="http://www.w3.org/2000/svg" xmlns:xlink="http://www.w3.org/1999/xlink" fill="none" version="1.1" width="18" height="18" viewBox="0 0 18 18"><g><g><path d="M9,0C13.9706,0,18,4.02944,18,9C18,13.9706,13.9706,18,9,18C4.02944,18,0,13.9706,0,9C0,4.02944,4.02944,0,9,0ZM9,1.22727C4.70724,1.22727,1.22727,4.70724,1.22727,9C1.22727,13.2928,4.70724,16.7727,9,16.7727C13.2928,16.7727,16.7727,13.2928,16.7727,9C16.7727,4.70724,13.2928,1.22727,9,1.22727ZM14.1136,8.38636C14.4525,8.38636,14.7273,8.6611,14.7273,9C14.7273,9.3389,14.4525,9.61364,14.1136,9.61364L3.88636,9.61364C3.54746,9.61364,3.27273,9.3389,3.27273,9C3.27273,8.6611,3.54746,8.38636,3.88636,8.38636L14.1136,8.38636Z" fill="#000000" fill-opacity="1"/></g></g></svg>